<svg class="controller" width="36" height="24" viewBox="0 0 36 24" xmlns="http://www.w3.org/2000/svg">
<path d="M23.1249 15.0611L22.5265 10.4001C22.4853 10.1359 22.4546 9.86172 22.427 9.59757C22.4151 9.49997 22.4046 9.40373 22.3944 9.30613C22.1784 7.42154 20.5991 6 18.7213 6C17.8743 6 17.046 6.2984 16.3908 6.83855C15.8953 7.24671 15.2899 7.47123 14.6899 7.47123H14.4548C13.8547 7.47123 13.251 7.24668 12.7554 6.83855C12.0987 6.2984 11.2704 6 10.4234 6C8.54566 6 6.96806 7.42143 6.75206 9.30613L6.72107 9.58911C6.692 9.85652 6.66279 10.1328 6.61815 10.4088L6.02149 15.0628C5.92553 15.8103 6.15363 16.563 6.65079 17.1272C7.13785 17.6811 7.83907 18 8.57305 18C9.47331 18 10.3205 17.5129 10.7818 16.7293L12.2326 14.2687C12.4179 13.9548 12.7539 13.7611 13.114 13.7611H16.0327C16.3911 13.7611 16.729 13.9566 16.9141 14.2687L18.3615 16.7276C18.8243 17.5131 19.6715 18 20.5735 18C21.3075 18 22.0087 17.6811 22.4958 17.1272C22.9929 16.563 23.221 15.8103 23.1251 15.0609L23.1249 15.0611ZM10.2176 10.6265C9.47513 10.6265 8.87138 10.0179 8.87138 9.26845C8.87138 8.51905 9.47499 7.91038 10.2176 7.91038C10.9584 7.91038 11.5619 8.51905 11.5619 9.26845C11.5619 10.0179 10.9584 10.6265 10.2176 10.6265ZM18.9305 10.6265C18.188 10.6265 17.5843 10.0179 17.5843 9.26845C17.5843 8.51905 18.1879 7.91038 18.9305 7.91038C19.6713 7.91038 20.2748 8.51905 20.2748 9.26845C20.2748 10.0179 19.6713 10.6265 18.9305 10.6265Z"/>
</svg>
