<svg width="20" height="13" viewBox="0 0 20 13" fill="none" xmlns="http://www.w3.org/2000/svg">
<path d="M18.612 0.834031L14.5899 3.14609V2.39999C14.5899 1.76356 14.3371 1.15307 13.8869 0.702996C13.4369 0.252927 12.8264 0 12.1899 0H2.39999C1.76356 0 1.15307 0.252927 0.702996 0.702996C0.25282 1.15307 0 1.76353 0 2.39999V9.87209C0 10.5085 0.252788 11.119 0.702996 11.5691C1.15307 12.0191 1.76353 12.2721 2.39999 12.2721H12.1899C12.8264 12.2721 13.4369 12.0191 13.8869 11.5691C14.3371 11.119 14.5899 10.5086 14.5899 9.87209V9.12599L18.612 11.438C19.374 11.8761 20 11.516 20 10.6381V1.63817C20 0.756068 19.376 0.396141 18.612 0.834031Z" fill="#303033"/>
</svg>
